HIERARCHY
ROOT Hips
{
	OFFSET 0.000000 0.000000 0.000000 
	CHANNELS 6 Xposition Yposition Zposition Yrotation Zrotation Xrotation 
	JOINT Lumbar
	{
		OFFSET 0.000000 0.000000 0.000000 
		CHANNELS 3 Zrotation Xrotation Yrotation
		JOINT Neck
		{
			OFFSET 0.000000 0.445665 0.000000 
			CHANNELS 3 Zrotation Xrotation Yrotation
			End Site
			{
				OFFSET 0.000000 0.227535 0.000000 
			}
		}
		JOINT RightShoulder
		{
			OFFSET 0.019635 0.377685 0.194865 
			CHANNELS 3 Zrotation Xrotation Yrotation
			JOINT RightElbow
			{
				OFFSET 0.000000 -0.243375 0.000000 
				CHANNELS 2 Zrotation Yrotation
				JOINT RightWrist
				{
					OFFSET 0.000000 -0.264825 0.000000 
					CHANNELS 2 Zrotation Xrotation
					End Site
					{
						OFFSET 0.006600 -0.176220 0.000990 
					}
				}
			}
		}
		JOINT LeftShoulder
		{
			OFFSET 0.019635 0.377685 -0.194865 
			CHANNELS 3 Zrotation Xrotation Yrotation
			JOINT LeftElbow
			{
				OFFSET 0.000000 -0.243375 0.000000 
				CHANNELS 2 Zrotation Yrotation
				JOINT LeftWrist
				{
					OFFSET 0.000000 -0.264825 0.000000 
					CHANNELS 2 Zrotation Xrotation
					End Site
					{
						OFFSET 0.006600 -0.176220 -0.000990 
					}
				}
			}
		}
	}
	JOINT RightHip
	{
		OFFSET 0.052140 -0.069960 0.075570 
		CHANNELS 3 Zrotation Xrotation Yrotation
		JOINT RightKnee
		{
			OFFSET 0.000000 -0.402270 0.000000 
			CHANNELS 1 Zrotation
			JOINT RightAnkle
			{
				OFFSET 0.000000 -0.404085 0.000000 
				CHANNELS 3 Zrotation Xrotation Yrotation
				End Site
				{
					OFFSET 0.204105 -0.089430 0.008415 
				}
			}
		}
	}
	JOINT LeftHip
	{
		OFFSET 0.052140 -0.069960 -0.075570 
		CHANNELS 3 Zrotation Xrotation Yrotation
		JOINT LeftKnee
		{
			OFFSET 0.000000 -0.402270 0.000000 
			CHANNELS 1 Zrotation
			JOINT LeftAnkle
			{
				OFFSET 0.000000 -0.404085 0.000000 
				CHANNELS 3 Zrotation Xrotation Yrotation
				End Site
				{
					OFFSET 0.204105 -0.089430 -0.008415 
				}
			}
		}
	}
}
MOTION
Frames: 27
Frame Time: 0.02
-1.80235 -0.645 -0.08578 739.59565 8.40803 -2.81167 1.29427 4.40033 -10.72834 0.88067 5.03757 -0.83079 28.54712 10.46899 36.54069 124.94006 95.95381 -21.36848 -6.41517 20.27627 -2.01294 -34.24817 50.5298 -81.33891 -6.34817 9.11936 68.77263 0.96094 -12.1886 -50.00731 -15.31472 -0.46578 -1.10197 89.48346 -9.38925 33.27134 -71.35606 -21.50926 2.75416 2.78337
-1.80329 -0.6461 -0.0849 739.6541 9.133 -2.77967 0.80322 4.27765 -10.69648 0.80491 5.08453 -0.83079 27.99754 10.41003 37.37461 125.63337 94.80893 -19.35201 -6.56678 20.65025 -2.87497 -33.8594 49.14118 -81.34794 -6.18484 8.36865 68.04416 0.94775 -12.17908 -49.87715 -15.38123 -0.47055 -1.10711 88.70291 -9.42571 33.27501 -71.00872 -22.95787 3.01334 3.0788
-1.80429 -0.64729 -0.08393 739.71797 9.88641 -2.76599 0.271 4.13941 -10.56822 0.66212 5.3454 -0.83079 27.38796 10.28198 38.10134 126.3045 93.04924 -16.63199 -6.71214 20.8414 -3.64415 -33.42188 48.39735 -81.33619 -5.92637 7.33971 67.27111 0.91679 -12.24829 -49.71986 -15.45055 -0.47111 -1.11026 87.87917 -9.47652 33.29354 -70.62294 -24.77163 3.33615 3.44736
-1.80526 -0.64844 -0.08301 739.77987 10.62288 -2.74529 -0.23979 4.00524 -10.47627 0.55171 5.53445 -0.83079 26.81603 10.17769 38.85838 126.98364 91.6278 -14.26832 -6.85328 21.119 -4.44579 -33.01795 47.36438 -81.33464 -5.71302 6.45849 66.52528 0.89481 -12.27784 -49.57728 -15.51962 -0.47362 -1.11434 87.08558 -9.51963 33.30478 -70.25894 -26.3159 3.61207 3.76174
-1.80622 -0.64959 -0.08204 739.83901 11.37752 -2.7182 -0.76366 3.88279 -10.41514 0.43186 5.61688 -0.83079 26.20195 10.10266 39.69858 127.67121 89.96024 -11.73809 -7.0225 21.37794 -5.29183 -32.55729 46.30801 -81.33063 -5.48868 5.48348 65.74986 0.87049 -12.32025 -49.42466 -15.58473 -0.47619 -1.11842 86.24737 -9.56761 33.31819 -69.87599 -28.28899 3.96241 4.1628
-1.80723 -0.65077 -0.08114 739.90594 12.10049 -2.70965 -1.26902 3.73299 -10.2677 0.31644 5.97162 -0.83079 25.66163 9.95188 40.33772 128.33547 88.64806 -9.39289 -7.1325 21.63293 -6.0212 -32.20745 45.45724 -81.32665 -5.26593 4.6393 65.02539 0.84624 -12.35603 -49.28646 -15.65842 -0.47752 -1.12197 85.49148 -9.60894 33.33079 -69.52404 -29.46681 4.17479 4.40299
-1.80846 -0.65201 -0.08044 739.98676 12.72997 -2.74127 -1.71814 3.50679 -9.9 0.22764 7.03016 -0.83079 25.32955 9.60323 40.45098 128.94771 88.59986 -7.72478 -7.07951 21.93547 -6.46181 -32.16288 45.00396 -81.32627 -5.06934 4.22401 64.45506 0.82701 -12.35323 -49.19527 -15.75742 -0.47669 -1.12475 84.97935 -9.62783 33.33568 -69.26266 -28.26141 3.97391 4.16094
-1.80974 -0.65325 -0.07981 740.07628 13.32604 -2.79214 -2.14601 3.25465 -9.45001 0.14625 8.35435 -0.83079 25.07557 9.18216 40.36407 129.53589 88.91016 -6.27079 -6.96757 22.23864 -6.78587 -32.23446 44.73852 -81.32675 -4.87843 3.95056 63.9373 0.80824 -12.3418 -49.11942 -15.86444 -0.47469 -1.12701 84.55076 -9.63962 33.33953 -69.03479 -26.2622 3.63531 3.75839
-1.81095 -0.65447 -0.07914 740.16614 13.93692 -2.8386 -2.58036 3.01739 -9.04115 0.06282 9.55439 -0.83079 24.79171 8.79819 40.36632 130.13099 88.96724 -4.7232 -6.88354 22.53334 -7.15595 -32.26283 44.39611 -81.3278 -4.68621 3.61314 63.39365 0.78866 -12.33541 -49.03623 -15.96632 -0.47301 -1.12935 84.0799 -9.65507 33.34514 -68.79441 -24.68924 3.37047 3.44221
-1.81235 -0.6558 -0.07849 740.23866 14.55132 -2.86756 -3.03007 2.76612 -8.61251 -0.02898 10.77718 -0.83079 24.48089 8.39389 40.37346 130.74317 89.37175 -3.13155 -6.79454 22.85599 -7.55221 -32.25087 44.04063 -81.32427 -4.48482 3.26421 62.85618 0.77077 -12.32671 -48.95375 -16.07486 -0.47199 -1.13226 83.62486 -9.66927 33.34606 -68.5408 -22.84848 3.05986 3.07104
-1.81337 -0.65691 -0.07783 740.34853 15.14892 -2.9371 -3.44156 2.53859 -8.2076 -0.10023 12.01184 -0.83079 24.24706 8.01589 40.32313 131.31321 89.16104 -1.69632 -6.70195 23.12309 -7.86742 -32.34873 43.7486 -81.33052 -4.30566 2.97616 62.31977 0.75002 -12.32012 -48.87367 -16.17112 -0.46947 -1.13392 83.15834 -9.6841 33.35602 -68.32371 -21.37729 2.81207 2.77641
-1.81328 -0.65738 -0.07709 740.56595 15.71759 -3.11554 -3.75769 2.37876 -7.88209 -0.12012 13.22142 -0.83079 24.19422 7.72714 40.17306 131.78229 87.03511 -0.60518 -6.61435 23.2367 -7.98753 -32.743 43.58353 -81.36583 -4.18272 2.82694 61.76699 0.71847 -12.31801 -48.79772 -16.23389 -0.4624 -1.13187 82.6313 -9.70322 33.39374 -68.19508 -21.07146 2.76154 2.72206
-1.81282 -0.65762 -0.07636 740.81931 16.26838 -3.3337 -4.03481 2.24469 -7.58516 -0.11857 14.43076 -0.83079 24.21883 7.46824 39.97088 132.20789 84.30399 0.32585 -6.52521 23.29526 -8.03036 -33.24001 43.47323 -81.41075 -4.08316 2.73463 61.21525 0.68465 -12.31843 -48.72361 -16.28362 -0.45401 -1.12867 82.09191 -9.72303 33.44011 -68.10297 -21.16921 2.77991 2.75118
-1.81255 -0.65797 -0.07565 741.05202 16.82145 -3.53264 -4.3265 2.10156 -7.27952 -0.12419 15.63521 -0.83079 24.21642 7.19637 39.78636 132.64759 81.93853 1.3032 -6.43638 23.37995 -8.10909 -33.67613 43.33587 -81.44973 -3.97585 2.61392 60.66707 0.6538 -12.31976 -48.64788 -16.3377 -0.44671 -1.12626 81.56354 -9.74184 33.48068 -67.99716 -21.1167 2.77365 2.74937
-1.81216 -0.65832 -0.07481 741.30367 17.39913 -3.73746 -4.63139 1.94595 -6.95211 -0.14054 16.87266 -0.83079 24.18203 6.91811 39.61962 133.11133 79.20599 2.38468 -6.34675 23.46001 -8.18103 -34.17631 43.21383 -81.49486 -3.85651 2.50808 60.10229 0.61473 -12.31277 -48.57572 -16.3985 -0.43729 -1.1227 81.01405 -9.76312 33.52883 -67.88048 -20.90964 2.73685 2.71519
-1.81194 -0.65862 -0.07427 741.5238 17.92041 -3.93887 -4.89909 1.82326 -6.67887 -0.12945 18.03468 -0.83079 24.23179 6.6628 39.40683 133.51375 77.08542 3.21457 -6.25966 23.53648 -8.24949 -34.56585 43.07135 -81.53011 -3.76777 2.38375 59.57341 0.59227 -12.32303 -48.4967 -16.44235 -0.43199 -1.12127 80.50602 -9.77972 33.56361 -67.79441 -21.11448 2.77875 2.76687
-1.81222 -0.65888 -0.07456 741.65239 18.3018 -4.12427 -5.07974 1.78118 -6.54043 -0.04872 19.01438 -0.83079 24.49281 6.45017 39.07426 133.76839 76.83972 3.38293 -6.17637 23.61803 -8.33486 -34.62517 42.84859 -81.52979 -3.75731 2.18757 59.12775 0.61595 -12.38726 -48.39545 -16.44046 -0.43853 -1.1261 80.10199 -9.78148 33.5566 -67.78593 -22.50279 3.04869 3.06632
-1.81268 -0.6591 -0.07518 741.74733 18.62523 -4.30433 -5.22341 1.77212 -6.45726 0.05874 19.91231 -0.83079 24.83546 6.26229 38.69912 133.96105 77.2224 3.30552 -6.09665 23.69758 -8.41855 -34.56908 42.60419 -81.52018 -3.77691 1.97149 58.72057 0.65644 -12.46776 -48.28765 -16.42226 -0.44924 -1.1331 79.74191 -9.77891 33.53645 -67.80634 -24.27071 3.39137 3.44475
-1.81309 -0.65935 -0.07566 741.85462 18.96761 -4.48455 -5.37996 1.75076 -6.35445 0.15485 20.82892 -0.83079 25.14222 6.07248 38.34806 134.17493 77.29113 3.3458 -6.01794 23.7771 -8.49864 -34.56479 42.37563 -81.51884 -3.78305 1.76823 58.30614 0.68946 -12.53594 -48.18473 -16.41291 -0.45794 -1.13906 79.37055 -9.77944 33.52403 -67.81216 -25.77119 3.68286 3.76687
-1.81336 -0.65956 -0.07608 741.97495 19.33986 -4.6752 -5.55114 1.71917 -6.22995 0.2495 21.82236 -0.83079 25.44821 5.84509 37.97526 134.41611 77.45781 3.35585 -5.928 23.85872 -8.59445 -34.56635 42.12412 -81.50121 -3.78917 1.55076 57.84971 0.72182 -12.62389 -48.07409 -16.3972 -0.46709 -1.14526 78.96339 -9.77501 33.50416 -67.82585 -27.67742 4.05165 4.17612
-1.81397 -0.65984 -0.07671 742.06043 19.63725 -4.84303 -5.68427 1.71602 -6.16276 0.35183 22.63803 -0.83079 25.77221 5.70049 37.63811 134.5869 77.57877 3.3716 -5.86237 23.93614 -8.65806 -34.52766 41.91406 -81.51462 -3.80215 1.35784 57.48845 0.75939 -12.6759 -47.97765 -16.39083 -0.47629 -1.15145 78.63976 -9.78011 33.49698 -67.82903 -28.83425 4.2778 4.42392
-1.81555 -0.66036 -0.07791 742.05105 19.73438 -4.94287 -5.71554 1.78665 -6.24598 0.48094 22.96686 -0.83079 26.14235 5.78689 37.41244 134.57329 77.41212 3.47293 -5.86281 24.00328 -8.63429 -34.3992 41.82749 -81.62078 -3.8265 1.23348 57.3933 0.80892 -12.61234 -47.9245 -16.41616 -0.48482 -1.15723 78.55031 -9.8107 33.52452 -67.8002 -27.73512 4.07501 4.18616
-1.81745 -0.66094 -0.0793 742.00876 19.75952 -5.02083 -5.71098 1.88404 -6.38384 0.61452 23.12211 -0.83079 26.52431 5.95405 37.224 134.49209 77.18254 3.58745 -5.88765 24.06633 -8.57836 -34.23482 41.78248 -81.7576 -3.8566 1.135 57.39047 0.86285 -12.51422 -47.88542 -16.45117 -0.49322 -1.16287 78.54103 -9.85136 33.56593 -67.75887 -25.88386 3.72895 3.7865
-1.81915 -0.66149 -0.08058 741.98597 19.82303 -5.11286 -5.72703 1.96686 -6.49279 0.73797 23.3678 -0.83079 26.88974 6.0785 37.01701 134.44561 76.98935 3.69043 -5.90143 24.13103 -8.53681 -34.09101 41.71553 -81.87717 -3.88411 1.02707 57.33669 0.91367 -12.44012 -47.83817 -16.48055 -0.50154 -1.16846 78.48539 -9.88864 33.60326 -67.7204 -24.43697 3.45954 3.47406
-1.82106 -0.66209 -0.082 741.9432 19.86144 -5.18766 -5.72401 2.06095 -6.62072 0.89645 23.56366 -0.83079 27.30527 6.22908 36.8151 134.38044 76.7834 3.80827 -5.91512 24.19668 -8.49613 -33.92589 41.66028 -82.01032 -3.91269 0.90867 57.3212 0.96966 -12.33191 -47.79801 -16.51453 -0.51061 -1.17464 78.47214 -9.92079 33.6307 -67.6948 -22.74113 3.14431 3.1072
-1.82262 -0.66258 -0.08317 741.9342 19.93478 -5.29275 -5.75206 2.13759 -6.72161 0.98282 23.8209 -0.83079 27.61808 6.34421 36.61237 134.33844 76.58276 3.90135 -5.93484 24.25921 -8.44603 -33.79741 41.59141 -82.12273 -3.93989 0.81853 57.2487 1.01581 -12.28577 -47.74675 -16.54145 -0.518 -1.1795 78.39037 -9.966 33.68225 -67.63913 -21.3781 2.88915 2.81372
-1.82312 -0.66278 -0.08363 742.03075 20.13118 -5.49071 -5.88021 2.15843 -6.73197 0.86754 24.30924 -0.83079 27.64466 6.3406 36.3951 134.38145 76.39476 3.92525 -5.96448 24.31596 -8.37814 -33.78523 41.46951 -82.16906 -3.96298 0.79974 56.98494 1.03305 -12.42394 -47.65954 -16.54665 -0.52095 -1.18085 78.0885 -10.04525 33.79644 -67.50283 -21.13394 2.83775 2.76634
